<svg width="159" height="36" viewBox="0 0 159 36" fill="none" xmlns="http://www.w3.org/2000/svg">
    <path fill-rule="evenodd" clip-rule="evenodd" d="M21.7209 7.80239C20.4862 7.2702 19.1392 6.95185 17.72 6.90276C11.5331 6.68817 6.33091 11.6051 6.12339 17.8619C5.91513 24.1192 10.7792 29.3842 16.9662 29.5984C19.9707 29.7025 22.7414 28.5939 24.8229 26.7106L23.8482 25.6559C22.0348 27.2866 19.6252 28.2458 17.0141 28.1554C11.613 27.9683 7.36814 23.3728 7.55 17.9114C7.73112 12.45 12.2717 8.15867 17.672 8.34574C19.6063 8.41305 21.3903 9.04714 22.8775 10.0836C22.8374 10.0476 22.8009 10.0081 22.7633 9.9702C22.1914 9.40417 21.8109 8.64586 21.7209 7.80239Z" fill="white" />
    <path fill-rule="evenodd" clip-rule="evenodd" d="M1.43554 18.2562C1.43554 9.52357 8.39492 2.41952 16.9486 2.41952C19.106 2.41952 21.1597 2.87473 23.0277 3.69105C23.4818 3.47683 23.9861 3.35373 24.5198 3.35373C25.1985 3.35373 25.8304 3.55084 26.37 3.88741C23.6741 2.03758 20.4341 0.953857 16.9486 0.953857C7.60314 0.953857 0 8.7158 0 18.2562C0 27.7962 7.60314 35.5581 16.9486 35.5581C21.5323 35.5581 25.6946 33.6875 28.7483 30.6591L27.7338 29.6229C24.9397 32.3869 21.137 34.0932 16.9486 34.0932C8.39492 34.0932 1.43554 26.9884 1.43554 18.2562Z" fill="white" />
    <path fill-rule="evenodd" clip-rule="evenodd" d="M2.82935 18.2557C2.82935 26.2032 9.16319 32.6694 16.9486 32.6694C20.7524 32.6694 24.2069 31.1231 26.7485 28.6172L25.734 27.5815C23.4524 29.8222 20.3567 31.2041 16.9486 31.2041C9.95459 31.2041 4.26525 25.3954 4.26525 18.2557C4.26525 11.1163 9.95459 5.30757 16.9486 5.30757C18.399 5.30757 19.7921 5.56009 21.0912 6.02051C21.2228 5.53295 21.4489 5.08629 21.752 4.70398C20.2522 4.14724 18.6348 3.84229 16.9486 3.84229C9.16319 3.84229 2.82935 10.3082 2.82935 18.2557Z" fill="white" />
    <path fill-rule="evenodd" clip-rule="evenodd" d="M26.7355 4.06032C26.612 3.97069 26.4881 3.88181 26.3621 3.79552C25.8221 3.45895 25.1902 3.26147 24.5119 3.26147C23.9778 3.26147 23.4739 3.38495 23.0194 3.59953C22.5215 3.83495 22.0852 4.18193 21.7442 4.61222C21.4407 4.9949 21.215 5.44156 21.0829 5.92875C21 6.23743 20.9517 6.56061 20.9517 6.89606C20.9517 7.07123 20.968 7.24267 20.9915 7.41114C21.1186 8.32081 21.5716 9.12226 22.2306 9.68495C22.3969 9.82664 22.5761 9.95197 22.7662 10.0613C23.1674 10.2926 23.6167 10.4462 24.0953 10.5031C24.2322 10.5195 24.3705 10.5303 24.5119 10.5303C26.4777 10.5303 28.0717 8.90321 28.0717 6.89606C28.0717 6.75176 28.0613 6.61044 28.0453 6.47061C27.9341 5.49734 27.4473 4.64271 26.7355 4.06032Z" fill="white" />
    <path fill-rule="evenodd" clip-rule="evenodd" d="M47.0061 34.0932C38.4524 34.0932 31.493 26.9884 31.493 18.2562C31.493 9.52357 38.4524 2.41915 47.0061 2.41915C55.5598 2.41915 62.5189 9.52357 62.5189 18.2562C62.5189 26.9884 55.5598 34.0932 47.0061 34.0932ZM47.0061 0.953857C37.6606 0.953857 30.0579 8.7158 30.0579 18.2562C30.0579 27.7962 37.6606 35.5581 47.0061 35.5581C56.3512 35.5581 63.9544 27.7962 63.9544 18.2562C63.9544 8.7158 56.3512 0.953857 47.0061 0.953857Z" fill="white" />
    <path fill-rule="evenodd" clip-rule="evenodd" d="M47.0061 31.2044C40.0125 31.2044 34.3227 25.3957 34.3227 18.2563C34.3227 11.1165 40.0125 5.30819 47.0061 5.30819C53.9996 5.30819 59.6894 11.1165 59.6894 18.2563C59.6894 25.3957 53.9996 31.2044 47.0061 31.2044ZM47.0061 3.84253C39.2207 3.84253 32.8872 10.308 32.8872 18.2563C32.8872 26.2038 39.2207 32.6693 47.0061 32.6693C54.791 32.6693 61.1249 26.2038 61.1249 18.2563C61.1249 10.308 54.791 3.84253 47.0061 3.84253Z" fill="white" />
    <path fill-rule="evenodd" clip-rule="evenodd" d="M47.0061 28.3155C41.573 28.3155 37.1522 23.8024 37.1522 18.2559C37.1522 12.709 41.573 8.196 47.0061 8.196C52.4396 8.196 56.86 12.709 56.86 18.2559C56.86 23.8024 52.4396 28.3155 47.0061 28.3155ZM47.0061 6.73071C40.7812 6.73071 35.717 11.9009 35.717 18.2559C35.717 24.6102 40.7812 29.7804 47.0061 29.7804C53.2306 29.7804 58.2951 24.6102 58.2951 18.2559C58.2951 11.9009 53.2306 6.73071 47.0061 6.73071Z" fill="white" />
    <path fill-rule="evenodd" clip-rule="evenodd" d="M102.339 4.48022L82.3005 28.6887L83.2407 29.8238L102.339 6.75031V4.48022Z" fill="white" />
    <path fill-rule="evenodd" clip-rule="evenodd" d="M67.8506 4.48022V6.75031L81.4172 23.1359L82.3588 22.0034L67.8506 4.48022Z" fill="white" />
    <path fill-rule="evenodd" clip-rule="evenodd" d="M70.6829 34.8304H72.1184V18.514L70.6829 16.7676V34.8304Z" fill="white" />
    <path fill-rule="evenodd" clip-rule="evenodd" d="M108.423 6.01656H129.823V4.55127H108.423V6.01656Z" fill="white" />
    <path fill-rule="evenodd" clip-rule="evenodd" d="M111.255 34.8524H112.691V10.3735H111.255V34.8524Z" fill="white" />
    <path fill-rule="evenodd" clip-rule="evenodd" d="M116.958 18.7214H129.823V17.2561H116.958V18.7214Z" fill="white" />
    <path fill-rule="evenodd" clip-rule="evenodd" d="M116.958 31.9604H129.823V30.4951H116.958V31.9604Z" fill="white" />
    <path fill-rule="evenodd" clip-rule="evenodd" d="M145.591 34.8524H147.027V10.3735H145.591V34.8524Z" fill="white" />
    <path fill-rule="evenodd" clip-rule="evenodd" d="M100.904 34.8304H102.339V13.3613L100.904 15.0869V34.8304Z" fill="white" />
    <path fill-rule="evenodd" clip-rule="evenodd" d="M102.339 11.2426V11.2299V8.95947L84.1548 30.928L85.0942 32.0634L102.339 11.2426Z" fill="white" />
    <path fill-rule="evenodd" clip-rule="evenodd" d="M95.2395 34.8303H96.675V20.1699L95.2395 21.8952V34.8303Z" fill="white" />
    <path fill-rule="evenodd" clip-rule="evenodd" d="M102.339 0.000244141L80.437 26.4316L80.4497 26.4457L80.4463 26.4491L81.3861 27.5838L102.339 2.2707V0.000244141Z" fill="white" />
    <path fill-rule="evenodd" clip-rule="evenodd" d="M67.8506 0V2.27008L83.2759 20.9016L84.2176 19.7691L67.8506 0Z" fill="white" />
    <path fill-rule="evenodd" clip-rule="evenodd" d="M67.8506 8.95923V11.1869L79.5577 25.3694L80.5004 24.2377L67.8506 8.95923Z" fill="white" />
    <path fill-rule="evenodd" clip-rule="evenodd" d="M67.8506 34.8303H69.2861V15.0679L67.8506 13.321V34.8303Z" fill="white" />
    <path fill-rule="evenodd" clip-rule="evenodd" d="M73.5151 34.8304H74.9503V21.9612L73.5151 20.2144V34.8304Z" fill="white" />
    <path fill-rule="evenodd" clip-rule="evenodd" d="M116.958 34.8523H129.823V33.387H116.958V34.8523Z" fill="white" />
    <path fill-rule="evenodd" clip-rule="evenodd" d="M116.958 15.8303H129.823V14.365H116.958V15.8303Z" fill="white" />
    <path fill-rule="evenodd" clip-rule="evenodd" d="M116.958 29.0689H129.823V27.604H116.958V29.0689Z" fill="white" />
    <path fill-rule="evenodd" clip-rule="evenodd" d="M108.423 8.90767H129.823V7.44238H108.423V8.90767Z" fill="white" />
    <path fill-rule="evenodd" clip-rule="evenodd" d="M114.087 34.8524H115.523V10.4252V10.3735H114.087V34.8524Z" fill="white" />
    <path fill-rule="evenodd" clip-rule="evenodd" d="M116.958 21.613H129.823V20.1477H116.958V21.613Z" fill="white" />
    <path fill-rule="evenodd" clip-rule="evenodd" d="M108.423 34.8524H109.859V10.3735H108.423V34.8524Z" fill="white" />
    <path fill-rule="evenodd" clip-rule="evenodd" d="M108.423 3.1252H129.823V1.65991H108.423V3.1252Z" fill="white" />
    <path fill-rule="evenodd" clip-rule="evenodd" d="M148.424 34.8524H149.859V10.3735H148.424V34.8524Z" fill="white" />
    <path fill-rule="evenodd" clip-rule="evenodd" d="M142.76 34.8524H144.195V10.3735H142.76V34.8524Z" fill="white" />
    <path fill-rule="evenodd" clip-rule="evenodd" d="M134.141 3.12471H158.59V1.65942H134.141V3.12471Z" fill="white" />
    <path fill-rule="evenodd" clip-rule="evenodd" d="M26.3699 3.88721C26.4959 3.97349 26.6198 4.06237 26.7433 4.152C26.6254 4.05531 26.5 3.96791 26.3699 3.88721Z" fill="white" />
    <path fill-rule="evenodd" clip-rule="evenodd" d="M134.141 8.90767H158.59V7.44238H134.141V8.90767Z" fill="white" />
    <path fill-rule="evenodd" clip-rule="evenodd" d="M134.141 6.01656H158.59V4.55127H134.141V6.01656Z" fill="white" />
    <path fill-rule="evenodd" clip-rule="evenodd" d="M99.521 34.8275C99.5139 34.521 99.5135 33.5556 99.5076 33.5098V16.7654L98.0721 18.491V33.4485C98.0572 33.5232 98.0553 34.4043 98.0631 34.8275H99.521Z" fill="white" />
</svg>